<svg xmlns="http://www.w3.org/2000/svg" width="256" height="256" viewBox="0 0 100 100"><rect width="100" height="100" rx="50" fill="#5cb5ff"></rect><path d="M29.51 28.88L35.03 28.88L35.03 59.78Q35.03 64.94 31.85 68.03Q28.67 71.12 23.45 71.12L23.45 71.12Q18.17 71.12 14.99 67.97Q11.81 64.82 11.81 59.36L11.81 59.36L17.27 59.36Q17.33 62.42 18.86 64.34Q20.39 66.26 23.45 66.26L23.45 66.26Q26.51 66.26 28.01 64.43Q29.51 62.60 29.51 59.78L29.51 59.78L29.51 28.88ZM82.37 29.18L88.19 29.18L88.19 70.70L82.73 70.70L82.73 39.74L68.93 70.70L65.09 70.70L51.23 39.68L51.23 70.70L45.77 70.70L45.77 29.18L51.65 29.18L67.01 63.50L82.37 29.18Z" fill="#fff"></path></svg>